# 3ds Max Wavefront OBJ Exporter v0.97b - (c)2007 guruware
# File Created: 05.09.2017 13:47:17

mtllib Chair.mtl

#
# object Box007
#

v  -289188.7500 392617.1250 41306.0273
v  -289188.7500 392617.1250 36516.7227
v  -284399.4375 392617.1250 36516.7227
v  -284399.4375 392617.1250 41306.0273
v  -289188.7500 453426.4063 41306.0273
v  -284399.4375 453426.4063 41306.0273
v  -284399.4375 453426.4063 36516.7227
v  -289188.7500 453426.4063 36516.7227
# 8 vertices

vn 0.0000 -1.0000 -0.0000
vn 0.0000 1.0000 -0.0000
vn 0.0000 0.0000 1.0000
vn 1.0000 0.0000 -0.0000
vn 0.0000 0.0000 -1.0000
vn -1.0000 0.0000 -0.0000
# 6 vertex normals

vt 1.0000 0.0000 0.0000
vt 1.0000 1.0000 0.0000
vt 0.0000 1.0000 0.0000
vt 0.0000 0.0000 0.0000
# 4 texture coords

g Box007
usemtl _crayfishdiffuse
s 2
f -8/-4/-6 -7/-3/-6 -6/-2/-6 -5/-1/-6 
s 4
f -4/-1/-5 -3/-4/-5 -2/-3/-5 -1/-2/-5 
s 8
f -8/-1/-4 -5/-4/-4 -3/-3/-4 -4/-2/-4 
s 16
f -5/-1/-3 -6/-4/-3 -2/-3/-3 -3/-2/-3 
s 32
f -6/-1/-2 -7/-4/-2 -1/-3/-2 -2/-2/-2 
s 64
f -7/-1/-1 -8/-4/-1 -4/-3/-1 -1/-2/-1 
# 6 polygons

#
# object Box008
#

v  -341305.6563 453426.4063 100327.7500
v  -341305.6563 453426.4063 30446.1250
v  -281085.6563 453426.4063 30446.1250
v  -281085.6563 453426.4063 100327.7500
v  -341305.6563 460208.3438 100327.7500
v  -281085.6563 460208.3438 100327.7500
v  -281085.6563 460208.3438 30446.1250
v  -341305.6563 460208.3438 30446.1250
# 8 vertices

vn 0.0000 -1.0000 -0.0000
vn 0.0000 1.0000 -0.0000
vn 0.0000 0.0000 1.0000
vn 1.0000 0.0000 -0.0000
vn 0.0000 0.0000 -1.0000
vn -1.0000 0.0000 -0.0000
# 6 vertex normals

vt 1.0000 0.0000 0.0000
vt 1.0000 1.0000 0.0000
vt 0.0000 1.0000 0.0000
vt 0.0000 0.0000 0.0000
# 4 texture coords

g Box008
usemtl _crayfishdiffuse
s 2
f -8/-4/-6 -7/-3/-6 -6/-2/-6 -5/-1/-6 
s 4
f -4/-1/-5 -3/-4/-5 -2/-3/-5 -1/-2/-5 
s 8
f -8/-1/-4 -5/-4/-4 -3/-3/-4 -4/-2/-4 
s 16
f -5/-1/-3 -6/-4/-3 -2/-3/-3 -3/-2/-3 
s 32
f -6/-1/-2 -7/-4/-2 -1/-3/-2 -2/-2/-2 
s 64
f -7/-1/-1 -8/-4/-1 -4/-3/-1 -1/-2/-1 
# 6 polygons

#
# object Box009
#

v  -289188.7500 392617.1250 94035.5938
v  -289188.7500 392617.1250 89246.2813
v  -284399.4375 392617.1250 89246.2813
v  -284399.4375 392617.1250 94035.5938
v  -289188.7500 453426.4063 94035.5938
v  -284399.4375 453426.4063 94035.5938
v  -284399.4375 453426.4063 89246.2813
v  -289188.7500 453426.4063 89246.2813
# 8 vertices

vn 0.0000 -1.0000 -0.0000
vn 0.0000 1.0000 -0.0000
vn 0.0000 0.0000 1.0000
vn 1.0000 0.0000 -0.0000
vn 0.0000 0.0000 -1.0000
vn -1.0000 0.0000 -0.0000
# 6 vertex normals

vt 1.0000 0.0000 0.0000
vt 1.0000 1.0000 0.0000
vt 0.0000 1.0000 0.0000
vt 0.0000 0.0000 0.0000
# 4 texture coords

g Box009
usemtl _crayfishdiffuse
s 2
f -8/-4/-6 -7/-3/-6 -6/-2/-6 -5/-1/-6 
s 4
f -4/-1/-5 -3/-4/-5 -2/-3/-5 -1/-2/-5 
s 8
f -8/-1/-4 -5/-4/-4 -3/-3/-4 -4/-2/-4 
s 16
f -5/-1/-3 -6/-4/-3 -2/-3/-3 -3/-2/-3 
s 32
f -6/-1/-2 -7/-4/-2 -1/-3/-2 -2/-2/-2 
s 64
f -7/-1/-1 -8/-4/-1 -4/-3/-1 -1/-2/-1 
# 6 polygons

#
# object Box010
#

v  -337550.6563 462054.6875 94583.3750
v  -337550.6563 462054.6875 36273.6563
v  -353377.6250 527215.3750 36273.6563
v  -353377.6250 527215.3750 94583.3750
v  -342752.5313 460517.0625 94583.3750
v  -358579.4688 525677.7500 94583.3750
v  -358579.4688 525677.7500 36273.6563
v  -342752.5313 460517.0625 36273.6563
v  -335484.0625 455170.9375 100369.3281
v  -354707.8750 534316.8125 100369.3281
v  -360646.0938 532561.5000 100369.3281
v  -341422.2813 453415.6250 100369.3281
v  -354707.8750 534316.8125 30487.7031
v  -360646.0938 532561.5000 30487.7031
v  -335484.0625 455170.9375 30487.7031
v  -341422.2813 453415.6250 30487.7031
v  -337182.5000 462163.5000 36273.6563
v  -337182.5000 462163.5000 94583.3750
v  -353009.4375 527324.2500 36273.6563
v  -353009.4375 527324.2500 94583.3750
v  -358947.6563 525568.9375 94583.3750
v  -343120.6875 460408.2188 94583.3750
v  -358947.6563 525568.9375 36273.6563
v  -343120.6875 460408.2188 36273.6563
# 24 vertices

vn 0.9590 0.2835 -0.0000
vn -0.9590 -0.2835 -0.0000
vn 0.0000 0.0000 1.0000
vn -0.2360 0.9717 -0.0000
vn 0.0000 0.0000 -1.0000
vn 0.2360 -0.9717 -0.0000
# 6 vertex normals

vt 1.0000 0.0000 0.0000
vt 1.0000 1.0000 0.0000
vt 0.0000 1.0000 0.0000
vt 0.0000 0.0000 0.0000
# 4 texture coords

g Box010
usemtl 02___Default
s 2
f -24/-4/-6 -23/-3/-6 -22/-2/-6 -21/-1/-6 
usemtl _crayfishdiffuse
s 4
f -20/-1/-5 -19/-4/-5 -18/-3/-5 -17/-2/-5 
s 8
f -16/-1/-4 -15/-4/-4 -14/-3/-4 -13/-2/-4 
s 16
f -15/-1/-3 -12/-4/-3 -11/-3/-3 -14/-2/-3 
s 32
f -12/-1/-2 -10/-4/-2 -9/-3/-2 -11/-2/-2 
s 64
f -10/-1/-1 -16/-4/-1 -13/-3/-1 -9/-2/-1 
s off
f -16/-4/-6 -10/-3/-6 -8/-3/-6 -7/-4/-6 
f -10/-3/-6 -12/-2/-6 -6/-2/-6 -8/-3/-6 
f -12/-2/-6 -15/-1/-6 -5/-1/-6 -6/-2/-6 
f -15/-1/-6 -16/-4/-6 -7/-4/-6 -5/-1/-6 
f -13/-1/-5 -14/-4/-5 -4/-4/-5 -3/-1/-5 
f -14/-4/-5 -11/-3/-5 -2/-3/-5 -4/-4/-5 
f -11/-3/-5 -9/-2/-5 -1/-2/-5 -2/-3/-5 
f -9/-2/-5 -13/-1/-5 -3/-1/-5 -1/-2/-5 
f -7/-4/-3 -8/-3/-3 -23/-3/-3 -24/-4/-3 
f -8/-3/-4 -6/-2/-4 -22/-2/-4 -23/-3/-4 
f -6/-2/-1 -5/-1/-1 -21/-1/-1 -22/-2/-1 
f -5/-1/-2 -7/-4/-2 -24/-4/-2 -21/-1/-2 
f -3/-1/-2 -4/-4/-2 -19/-4/-2 -20/-1/-2 
f -4/-4/-1 -2/-3/-1 -18/-3/-1 -19/-4/-1 
f -2/-3/-4 -1/-2/-4 -17/-2/-4 -18/-3/-4 
f -1/-2/-3 -3/-1/-3 -20/-1/-3 -17/-2/-3 
# 22 polygons

#
# object Box011
#

v  -339101.5313 392617.1250 94035.5938
v  -339101.5313 392617.1250 89246.2813
v  -334312.2188 392617.1250 89246.2813
v  -334312.2188 392617.1250 94035.5938
v  -339101.5313 453426.4063 94035.5938
v  -334312.2188 453426.4063 94035.5938
v  -334312.2188 453426.4063 89246.2813
v  -339101.5313 453426.4063 89246.2813
# 8 vertices

vn 0.0000 -1.0000 -0.0000
vn 0.0000 1.0000 -0.0000
vn 0.0000 0.0000 1.0000
vn 1.0000 0.0000 -0.0000
vn 0.0000 0.0000 -1.0000
vn -1.0000 0.0000 -0.0000
# 6 vertex normals

vt 1.0000 0.0000 0.0000
vt 1.0000 1.0000 0.0000
vt 0.0000 1.0000 0.0000
vt 0.0000 0.0000 0.0000
# 4 texture coords

g Box011
usemtl _crayfishdiffuse
s 2
f -8/-4/-6 -7/-3/-6 -6/-2/-6 -5/-1/-6 
s 4
f -4/-1/-5 -3/-4/-5 -2/-3/-5 -1/-2/-5 
s 8
f -8/-1/-4 -5/-4/-4 -3/-3/-4 -4/-2/-4 
s 16
f -5/-1/-3 -6/-4/-3 -2/-3/-3 -3/-2/-3 
s 32
f -6/-1/-2 -7/-4/-2 -1/-3/-2 -2/-2/-2 
s 64
f -7/-1/-1 -8/-4/-1 -4/-3/-1 -1/-2/-1 
# 6 polygons

#
# object Box012
#

v  -339101.5313 392617.1250 41306.0273
v  -339101.5313 392617.1250 36516.7227
v  -334312.2188 392617.1250 36516.7227
v  -334312.2188 392617.1250 41306.0273
v  -339101.5313 453426.4063 41306.0273
v  -334312.2188 453426.4063 41306.0273
v  -334312.2188 453426.4063 36516.7227
v  -339101.5313 453426.4063 36516.7227
# 8 vertices

vn 0.0000 -1.0000 -0.0000
vn 0.0000 1.0000 -0.0000
vn 0.0000 0.0000 1.0000
vn 1.0000 0.0000 -0.0000
vn 0.0000 0.0000 -1.0000
vn -1.0000 0.0000 -0.0000
# 6 vertex normals

vt 1.0000 0.0000 0.0000
vt 1.0000 1.0000 0.0000
vt 0.0000 1.0000 0.0000
vt 0.0000 0.0000 0.0000
# 4 texture coords

g Box012
usemtl _crayfishdiffuse
s 2
f -8/-4/-6 -7/-3/-6 -6/-2/-6 -5/-1/-6 
s 4
f -4/-1/-5 -3/-4/-5 -2/-3/-5 -1/-2/-5 
s 8
f -8/-1/-4 -5/-4/-4 -3/-3/-4 -4/-2/-4 
s 16
f -5/-1/-3 -6/-4/-3 -2/-3/-3 -3/-2/-3 
s 32
f -6/-1/-2 -7/-4/-2 -1/-3/-2 -2/-2/-2 
s 64
f -7/-1/-1 -8/-4/-1 -4/-3/-1 -1/-2/-1 
# 6 polygons

